# xmcd
#
# Track frame offsets:
# 150
# 17640
# 36133
# 51905
# 67853
# 87655
# 108126
# 125678
# 143251
# 160789
# 178460
# 196646
# 209850
#
# Disc length: 3032 seconds
#
#
# Revision: 0
# Processed by: cddbd v1.5PL3 Copyright (c) Steve Scherf et al.
# Submitted via: FreeRIP 2.60 
#
DISCID=b30bd60d
DTITLE=LONESTAR - Let's Be Us Again
DYEAR=2004
DGENRE=Country
TTITLE0=Country Fair
TTITLE1=Class Reunion (That Used To Be Us)
TTITLE2=Let's Be Us Again
TTITLE3=That Gets Me
TTITLE4=Women Rule The World
TTITLE5=What I Miss The Most
TTITLE6=Let Them Be Little
TTITLE7=T.G.I.F.
TTITLE8=Summertime
TTITLE9=Now
TTITLE10=Mr. Mom
TTITLE11=From There To Here - Featuring Randy Owen
TTITLE12=Somebody's Someone
EXTD=
EXTT0=
EXTT1=
EXTT2=
EXTT3=
EXTT4=
EXTT5=
EXTT6=
EXTT7=
EXTT8=
EXTT9=
EXTT10=
EXTT11=
EXTT12=
PLAYORDER=
